<svg width="136" height="24" viewBox="0 0 136 24" fill="none" xmlns="http://www.w3.org/2000/svg">
<path d="M77.6568 2.3432C76.2096 0.896 74.2096 0 72 0H64C61.7912 0 59.7912 0.896 58.3432 2.3432C56.896 3.7912 56 5.7912 56 8V24H64V20H72V24H80V8C80 5.7912 79.1048 3.7912 77.6568 2.3432ZM64 12V8H72V12H64Z" fill="white"/>
<path d="M136 16H128V24H136V16Z" fill="#FF0000"/>
<path d="M122 8L126 12L122 16H128L120 24H112V16L116 12L112 8C112 5.7912 112.895 3.7912 114.343 2.3432C115.79 0.896 117.79 0 120 0H136V8H122Z" fill="white"/>
<path d="M92 0H84V8H92V0Z" fill="#00FD00"/>
<path d="M108 8H100C102.209 8 104.209 8.896 105.657 10.3432C107.105 11.7912 108 13.7912 108 16V24H100V16H92V24H84V16L100 0H108V8Z" fill="white"/>
<path d="M0 16L8 8V24H0V16Z" fill="white"/>
<path d="M24 8V24H16V8H8L16 0C18.2088 0 20.2088 0.896 21.6568 2.3432C23.1048 3.7912 24 5.7912 24 8Z" fill="white"/>
<path d="M8 0H0V8H8V0Z" fill="#00FFFF"/>
<path d="M36 16H43.9992L35.9992 24C33.7904 24 31.7912 23.1048 30.3432 21.6568C28.8952 20.2096 28 18.2096 28 16V0H36V16Z" fill="white"/>
<path d="M52 16H44V24H52V16Z" fill="#FF19FF"/>
<path d="M52 8L44 16V0H52V8Z" fill="white"/>
</svg>
