<?xml version="1.0" standalone="no"?>
<!DOCTYPE svg PUBLIC "-//W3C//DTD SVG 20010904//EN"
 "http://www.w3.org/TR/2001/REC-SVG-20010904/DTD/svg10.dtd">
<svg version="1.0" xmlns="http://www.w3.org/2000/svg"
 width="700.000000pt" height="700.000000pt" viewBox="0 0 700.000000 700.000000"
 preserveAspectRatio="xMidYMid meet">
<metadata>
Created by potrace 1.14, written by Peter Selinger 2001-2017
</metadata>
<g transform="translate(0.000000,700.000000) scale(0.100000,-0.100000)"
fill="#000000" stroke="none">
<path d="M1400 4905 l0 -695 691 -2 692 -3 -692 -697 -691 -697 0 -706 0 -705
700 0 700 0 0 1401 0 1401 403 -4 c450 -5 455 -6 607 -79 70 -34 101 -58 175
-133 103 -104 152 -189 185 -320 19 -77 20 -114 20 -1173 l0 -1093 705 0 705
0 -3 1508 c-3 1383 -5 1513 -20 1577 -100 407 -323 717 -662 920 -197 118
-455 194 -658 195 l-68 0 -697 -694 -697 -694 -3 694 -2 694 -695 0 -695 0 0
-695z"/>
</g>
</svg>
